<svg id="Layer_5" data-name="Layer 5" xmlns="http://www.w3.org/2000/svg" viewBox="0 0 28.7 32.02">
  <defs>
    <style>
      .cls-1 {
        fill: #fff;
      }
    </style>
  </defs>
  <title>icons-08</title>
  <g>
    <path class="cls-1" d="M2,2H15.38V8.46a1,1,0,0,0,1,1h6.26V12h2V8.46a1,1,0,0,0-.28-.7L17.1.3a1,1,0,0,0-.72-.3H1A1,1,0,0,0,0,1V31a1,1,0,0,0,1,1H18.28V30H2ZM17.38,3.46l3.89,4H17.38Z"/>
    <path class="cls-1" d="M27.28,26l-2.65,2.65V15h-2V28.61L20,25.93l-1.41,1.41,4.39,4.39a1,1,0,0,0,1.41,0l4.35-4.36Z"/>
  </g>
</svg>
