<svg id="Capa_1" data-name="Capa 1" xmlns="http://www.w3.org/2000/svg" viewBox="0 0 45 45">
  <defs>
    <style>
      .cls-1 {
        fill: #d9eff4;
      }

      .cls-1, .cls-2, .cls-3 {
        stroke: #29abe2;
      }

      .cls-1, .cls-3 {
        stroke-linecap: round;
        stroke-linejoin: round;
      }

      .cls-2, .cls-3 {
        fill: none;
      }

      .cls-2 {
        stroke-miterlimit: 10;
      }
    </style>
  </defs>
  <title>icons</title>
  <g>
    <path class="cls-1" d="M34.87,2.54,3.19,34.21c-.77.77-1.31,4.6-1.58,7.09a1.83,1.83,0,0,0,2,2c2.54-.22,6.49-.68,7.27-1.45L42.53,10.2a3,3,0,0,0,0-4.2L39.07,2.54A3,3,0,0,0,34.87,2.54Z"/>
    <line class="cls-2" x1="3.95" y1="33.46" x2="11.61" y2="41.12"/>
    <path class="cls-3" d="M1.89,39.06,4,41.12l2,2-2.33.24a1.82,1.82,0,0,1-2-2Z"/>
    <line class="cls-2" x1="31.42" y1="5.99" x2="39.08" y2="13.65"/>
    <line class="cls-2" x1="30" y1="7.41" x2="37.66" y2="15.07"/>
  </g>
</svg>
