<?xml version="1.0" encoding="utf-8"?>
<!-- Generator: Adobe Illustrator 20.1.0, SVG Export Plug-In . SVG Version: 6.00 Build 0)  -->
<svg version="1.1" id="Capa_1" xmlns="http://www.w3.org/2000/svg" xmlns:xlink="http://www.w3.org/1999/xlink" x="0px" y="0px"
	 viewBox="0 0 273.1 53" style="enable-background:new 0 0 273.1 53;" xml:space="preserve">
<style type="text/css">
	.st0{fill:#262729;}
	.st1{fill:#C8B783;}
	.st2{fill:#FFFFFE;}
</style>
<g>
	<g>
		<g>
			<g>
				<g>
					<path class="st0" d="M0,34.6C0,34.6,0,34.6,0,34.6l0,6.1l10.2,5.6l0,0l0,0l0,0v-26H0V34.6z"/>
					<polygon class="st0" points="13.6,48.2 18.7,50.9 23.7,48.2 23.7,13.6 13.6,13.6 					"/>
					<path class="st0" d="M37.3,6.8H27.1v39.5l0,0l0,0v0l10.2-5.6v-6.5c0-0.1,0-0.1,0-0.2c0,0,0,0,0,0h0V6.8z"/>
					<rect y="13.6" class="st1" width="10.2" height="3.4"/>
					<rect y="6.8" class="st1" width="23.7" height="3.4"/>
					<rect class="st1" width="37.3" height="3.4"/>
				</g>
				<path class="st0" d="M77.6,26.4c0,0-2.8,7.5-9.7,7.5c0,0-4.5,0.6-4.6-8.6v-4.4H68l1.9,3.6c0,0.1,0.1,0.2,0.3,0.2h0.2v-3.7h0V20
					h0v-3.7h-0.2c-0.1,0-0.2,0-0.2,0.1v0L68.1,20h-4.7V8h0h0h7c0,0,0.3,0,0.5,0h0h3.3l2.5,6.1v0c0,0.1,0.1,0.3,0.4,0.3h0.3V7.7l0,0
					c0,0,0,0,0,0V7.3h-0.4c0,0,0,0,0,0H63.4h-9.5c0,0,0,0,0,0h-0.4v0.4h0c0,0.2,0.2,0.3,0.3,0.3c0,0,0,0,0,0s0,0,0,0c0,0,0,0,0,0
					h0.1c0.1,0,0.2,0,0.3,0c1.2,0.3,2.1,1,2.1,4.3h0v11.1h0c0,7.9-0.8,9.6-2,10.2c-0.1,0-0.2,0-0.3,0.1c-0.2,0-0.2,0-0.2,0s0,0,0,0
					c-0.2,0-0.3,0.2-0.3,0.3h0v0c0,0,0,0,0,0c0,0,0,0,0,0v0.4H54v0h2.2v0h3.8v0c0,0,16.9,0,16.9,0c0,0,1.3-7.8,1.3-7.8L77.6,26.4z"
					/>
				<path class="st0" d="M104.5,7.6V7.3h-0.4c0,0,0,0,0,0H90.4v0h-8.9v0h-0.9v0.4h0c0,0.2,0.1,0.3,0.3,0.3c0,0,0,0,0,0s0,0,0,0
					c0,0,0,0,0,0h0H81c0.1,0,0.2,0,0.2,0c1.2,0.3,2.1,1,2.1,4.3h0v11.1h0c0,7.9-0.8,9.6-2,10.2c-0.1,0-0.2,0.1-0.3,0.1
					c-0.1,0-0.2,0-0.2,0c-0.2,0-0.3,0.2-0.3,0.3h0v0.4h0.6v0h2.2v0h7.1v0h3.1v0h0.6v-0.3c0,0,0,0,0,0c0-0.2-0.1-0.3-0.3-0.4
					c0,0,0,0-0.1,0h-0.2c-0.1,0-0.2,0-0.3,0c-0.1,0-0.8,0-1.2-0.2c-1-0.5-1.5-1.6-1.7-5.8v-6.8H95l1.9,3.6v0c0,0.1,0.1,0.1,0.2,0.1
					h0.2v-3.7h0V20h0v-3.7h-0.2c-0.1,0-0.2,0.1-0.2,0.1v0L95.1,20h-4.7V8h7c0,0,0.3,0,0.5,0h0h3.3l2.5,6.1l0,0
					c0,0.1,0.1,0.3,0.4,0.3h0.3V7.6L104.5,7.6C104.5,7.6,104.5,7.6,104.5,7.6z"/>
				<path class="st0" d="M141.2,33.7c-1.5-0.4-2.4-1.4-2.7-2.9c-0.2-1.5-0.3-2.9-0.3-4.4c0-4.4-0.1-8.8-0.1-13.2c0-0.7,0-1.3,0.1-2
					c0.2-1.9,0.7-2.6,2.5-3c0,0,0.1,0,0.1-0.1c0-0.1,0-0.1,0-0.2h0V7.3l-9,0c-1.4,3.4-3,7.3-4.4,10.7c-0.8,2-1.7,4-2.5,6.1
					c-0.1,0.2-0.2,0.5-0.3,0.7c-0.5-1-1.2-2.5-1.7-3.5c-2-4.5-4.1-9-6.1-13.5c-0.1-0.1-0.1-0.3-0.1-0.4v0h-9.1v0c0,0,0,0,0,0
					c0,0.2,0,0.5,0,0.7c0.3,0.1,0.5,0.1,0.7,0.1c1.1,0.3,1.8,1,2,2.2c0.1,0.6,0.2,1.2,0.2,1.8c0,1.9,0,3.8,0,5.7V32l-4.1,1.9h0
					c-0.1,0-0.2,0.1-0.2,0.2v0.2h4.7h0.1h4.7v-0.2c0-0.1-0.1-0.2-0.1-0.2h0l-4.1-1.9l-0.1-16.5c0-1.2,0-2.3,0-3.5c0-0.2,0-0.3,0-0.5
					c0,0,0.1,0,0.1,0c3.6,8.2,6.5,14.6,10.2,22.8c3.4-8.3,6.1-14.8,9.4-22.9c0,0,0.1,0,0.1,0c0,0.2,0,0.3,0,0.5c0,2.4,0,4.8,0,7.2
					c0,3.6,0,7.2-0.1,10.8c-0.1,2.2-0.8,3.2-2.6,3.7c-0.5,0.1-0.5,0.4-0.4,0.7c4.5,0,9,0,13.6,0C141.8,34,141.6,33.8,141.2,33.7z"/>
				<g>
					<path class="st0" d="M194.7,30.5c-0.4,0.8-0.7,1.6-1.2,2.3c-0.3,0.4-0.5,0.6-0.9,0.4c-0.5-0.2-0.4-0.6-0.4-0.9
						c0-2.5,0-4.9,0-7.4c0-1,0-2-0.1-3c-0.3-2.5-1.5-4.4-3.7-5.4c-2.1-1-4.4-1.2-6.7-0.9c-1.5,0.2-3,0.7-4.3,1.7
						c-0.8,0.7-1.4,1.5-1.3,2.6c0.1,1.4,1.1,2.3,2.6,2.3c1.3-0.1,2.3-1.1,2.2-2.5c0-0.9-0.3-1.7-0.9-2.4c-0.4-0.4-0.4-0.7,0.2-0.9
						c0.5-0.2,1.1-0.4,1.6-0.5c2.5-0.4,4.2,0.8,4.6,3.5c0.2,1,0.1,2.1,0.1,3.2c0,0.4-0.1,0.6-0.5,0.7c-2.4,0.6-4.8,1.3-7.2,1.9
						c-0.9,0.2-1.8,0.5-2.6,1.2c-2.3,1.9-2.3,6.7,1.3,8c0.6,0.2,1.3,0.4,2,0.5c2.9,0.3,5.3-0.7,6.8-3.4c0-0.1,0.1-0.1,0.2-0.2
						c0.2,1.4,0.7,2.5,1.9,3.2c1.7,1,4,0.6,5.3-0.9c0.8-0.9,1.3-2.1,1.6-3.3C194.8,30,194.8,30.2,194.7,30.5z M186.4,26.6
						c0,0.7,0,1.5,0,2.2c0,1.2-0.3,2.2-1.1,3.1c-0.6,0.6-1.2,1.1-1.9,1.5c-1.3,0.7-2.7,0-3.1-1.4c-0.6-2.6-0.2-5.3,2.4-6.7
						c1.2-0.6,2.4-1.2,3.7-1.8C186.4,24.6,186.4,25.6,186.4,26.6z"/>
					<path class="st0" d="M263.2,30.1c-0.3-0.1-0.3,0.1-0.4,0.3c-0.5,1.4-0.6,1.6-1.2,2.4c-0.2,0.3-0.6,0.6-1,0.4
						c-0.4-0.2-0.4-0.6-0.4-0.9c0-2.4,0-4.8,0-7.2c0-1.1,0-2.2-0.1-3.3c-0.3-2.4-1.5-4.3-3.7-5.4c-1.3-0.6-2.6-0.9-4-1
						c-2.3-0.1-4.5,0.2-6.5,1.5c-0.8,0.5-1.5,1.2-1.7,2.2c-0.2,1,0,1.9,0.7,2.5c0.8,0.7,1.8,0.8,2.7,0.3c0.9-0.4,1.3-1.2,1.3-2.3
						c0-0.9-0.3-1.7-0.9-2.3c-0.4-0.4-0.4-0.7,0.2-0.9c0.5-0.2,1-0.4,1.5-0.4c2.5-0.4,4.3,0.8,4.7,3.4c0.2,1.1,0.1,2.2,0.1,3.3
						c0,0.4-0.1,0.5-0.5,0.6c-2.4,0.6-4.8,1.3-7.2,1.9c-0.9,0.2-1.8,0.5-2.6,1.1c-2.3,1.9-2.4,6.7,1.3,8c0.6,0.2,1.3,0.4,2,0.5
						c3,0.4,5.6-1,6.8-3.5c0,0,0.1-0.1,0.1-0.1c0,0.1,0,0.2,0.1,0.3c0.4,2.1,1.8,3.3,3.9,3.3c2.3,0,4.4-1.9,4.8-4.4
						C263.2,30.3,263.3,30.2,263.2,30.1z M251.7,33.2c-1.6,1-3.2,0.2-3.5-1.6c-0.6-3.4,0.5-5.2,2.8-6.5c1.1-0.6,2.2-1,3.5-1.6
						c0,1.8-0.1,3.4,0,5C254.6,30.8,253.4,32.2,251.7,33.2z"/>
					<path class="st0" d="M223.7,15.4c1.7,0,3.1-1.4,3.2-3.1c0-1.8-1.4-3.2-3.2-3.2c-1.7,0-3.1,1.4-3.2,3.1
						C220.5,14,222,15.4,223.7,15.4z"/>
					<path class="st0" d="M229,34c-0.5,0-0.9,0-1.4,0c-1,0-1.1-0.1-1.1-1.1c0-9,0-7.6,0-16.6c0-0.2,0-0.2,0-0.4c0,0,0,0,0,0l0,0H226
						l-7.4,3.4l0.1,0c-0.1,0-0.1,0.1-0.1,0.2c0,0.2,0.3,0.2,0.5,0.2c0.4,0,0.9,0,1.3,0c0.4,0,0.7,0.2,0.7,0.7c0,0.3,0,0.9,0,1.2
						c0,8.3,0,3.1,0,11.5c0,0.8-0.1,0.9-0.8,0.9c-0.5,0-1,0-1.5,0c-0.2,0.5,0.2,0.4,0.4,0.4c2.8,0,5.6,0,8.4,0c0.5,0,1,0,1.5,0
						c0.3,0,0.4-0.1,0.3-0.4C229.1,34,229.1,34,229,34z"/>
					<path class="st0" d="M273,34c0,0-0.1,0-0.1,0c-0.5,0-0.9,0-1.4,0c-1,0-1.1-0.1-1.1-1.1c0-8.7,0-14.5,0-23.2c0-0.2,0-0.4,0-0.6
						c-0.2,0-0.3,0-0.5,0c-0.1,0-0.1,0-0.1,0l-7.3,3.2l0,0c-0.1,0-0.2,0.1-0.2,0.2c0,0.2,0.3,0.2,0.5,0.2c0.4,0,0.9,0,1.3,0
						c0.4,0,0.7,0.2,0.7,0.7c0,0.3,0,0.7,0,1c0,7.7,0,10.4,0,17.8l0,0v1v0.4c0,0-0.1,0.8,0.6,0.8c2,0,3.9,0,5.9,0c0.5,0,1,0,1.5,0
						C273.1,34.4,273.2,34.3,273,34z"/>
					<path class="st0" d="M241.6,15.5c-0.5,0-0.8,0-1.5,0c-0.7,0-1.4,0-2.2,0c0-0.1,0-0.2,0-0.3c0-0.2,0-0.2,0-0.2
						c0-0.1,0-0.1,0-0.3c0-1.3,0-2.1,0-3.3c0,0,0,0,0,0l0-0.2h-0.6l-7.3,4.4l0,0c-0.1,0-0.1,0.1-0.1,0.2c0,0.2,0.2,0.2,0.4,0.2
						c0.6,0,1.2,0,1.8,0c0,0.3,0,1.2,0,1.4c0,4,0,8.6,0,12.5c0,0.5,0,1,0.1,1.5c0.2,2,1.3,3.3,3.2,3.6c2.7,0.5,5.2-1,6.4-4.5
						c-0.3-0.2-0.4,0-0.6,0.3c-0.3,0.9-0.8,1.7-1.5,2.4c-0.4,0.3-0.8,0.7-1.3,0.5c-0.6-0.2-0.5-0.8-0.5-1.3c0-4.5,0-10.3,0-15l0,0
						c0,0,0,0,0,0c0,0,0-0.1,0-0.1c0-0.3,0.2-1.3,1.4-1.3c0.5,0,1,0,1.6,0c0.2,0,0.2,0,0.2,0v0c0.1,0,0.3,0,0.4,0
						c0.1,0,0.4,0,0.4-0.2C241.9,15.4,241.7,15.5,241.6,15.5z"/>
					<path class="st0" d="M172.7,25.4c-0.2,0-0.3,0.2-0.3,0.4c-0.2,0.6-0.2,1.3-0.4,1.9c-0.9,2.7-2.4,5-5.2,6c-3,1.2-6.5,0.6-8.3-3
						c-0.6-1.1-1-2.3-1.2-3.5c-0.7-3.2-0.7-6.5-0.5-9.8c0.2-2.1,0.5-4.2,1.4-6.2c0.6-1.4,1.4-2.6,2.9-3.1c2.2-0.9,4.2-0.4,6.1,0.9
						c1.6,1.1,2.6,2.6,3.4,4.2c0.8,1.6,1.3,3.3,1.5,5c0,0.2,0,0.5,0.2,0.5c0.1,0,0.1,0,0.1-0.1c0-3.8,0-6.4,0-10.2
						c-0.1,0-0.1,0-0.2-0.1L170,11c0,0-0.9-1.2-2.4-2.2c0,0,0,0,0,0l0,0c-0.2-0.1-0.4-0.2-0.5-0.3c-0.1,0-0.1-0.1-0.2-0.1
						c-0.2-0.1-0.4-0.2-0.6-0.3c0,0-0.1,0-0.1-0.1c-0.4-0.2-0.9-0.3-1.4-0.5c-4.5-0.9-10.4,0.7-13.3,6.4c-1.7,3.3-2,6.8-1.4,10.4
						c0.6,3.3,2.1,6.2,4.9,8.2c2.7,2,5.8,2.7,9.2,2.3c3.5-0.4,6.2-2.1,7.7-5.4c0.6-1.3,0.9-2.6,1.1-4
						C172.8,25.4,172.8,25.4,172.7,25.4z"/>
				</g>
			</g>
			<path class="st0" d="M215.7,22.6c-0.3-2-1.1-3.8-2.6-5.2c-1.3-1.2-3-1.8-4.8-1.9c-1.2-0.1-2.3,0-3.4,0.4c0,0-0.1,0-0.1,0
				c-0.2,0.1-0.4,0.2-0.6,0.2c-1.4,0.6-2,1.2-2.1,1.3c-0.1,0.1-0.2-0.1-0.2-0.1v-1.9h-0.6l-7.3,3.4l0,0c-0.1,0-0.2,0.1,0,0.4
				c0.5,0,1,0,1.5,0c0.6,0,0.8,0.2,0.8,0.8c0,3.4,0,6.3,0,9c0,3.4,0,6.8,0,11c0,0.6-0.2,0.8-0.8,0.8c-0.5,0-1.1,0-1.6,0
				c0,0.2,0,0.3,0,0.4c3.9,0,7.8,0,11.8,0c0.1-0.3,0-0.4-0.3-0.4c-0.8,0-1.6,0-2.4,0c-0.8,0-0.9-0.1-0.9-0.9c0-3.1,0-2.7,0-5.9
				c0-0.1,0-0.3,0-0.4c0.7,0.3,1.2,0.6,1.9,0.8c1.8,0.5,3.6,0.4,5.3,0c2.7-0.6,4.8-2.2,5.8-4.9C216,27.3,216,24.9,215.7,22.6z
				 M209.3,29.6c-0.2,1.1-0.5,2.1-1.1,3c-1.3,2-4.4,2.2-6,0.4c-0.1-0.1-0.2-0.4-0.2-0.6c0-2.2,0-4.4,0-6.6c0-0.4,0-0.8,0-1.3v-2.4
				c0-1,0-1.9,0-2.9c0-0.3,0.1-0.7,0.3-1c0.9-1.2,2.1-2,3.6-1.9c1.2,0,2.2,0.6,2.6,1.8c0.4,1.1,0.7,2.2,0.8,3.4
				C209.8,24.3,209.8,27,209.3,29.6z"/>
		</g>
	</g>
	<g>
		<path d="M54.1,50.9h-0.7v-6.5h0.7V50.9z"/>
		<path d="M59,50.9h-0.6v-2.6c0-0.5-0.1-0.8-0.3-1c-0.2-0.2-0.5-0.3-1-0.3c-0.3,0-0.6,0.1-0.8,0.3c-0.2,0.2-0.3,0.5-0.3,0.8v2.8
			h-0.6v-4.5h0.6v0.4c0.3-0.3,0.7-0.5,1.1-0.5c1.2,0,1.8,0.6,1.8,1.9V50.9z"/>
		<path d="M63.7,46.4L62,50.9h-0.6l-1.7-4.5h0.7l1.3,3.5l1.3-3.5H63.7z"/>
		<path d="M65.3,44.8c0,0.1,0,0.2-0.1,0.3s-0.2,0.1-0.3,0.1c-0.1,0-0.2,0-0.3-0.1s-0.1-0.2-0.1-0.3c0-0.1,0-0.2,0.1-0.3
			c0.1-0.1,0.2-0.1,0.3-0.1c0.1,0,0.2,0,0.3,0.1C65.3,44.5,65.3,44.6,65.3,44.8z M65.2,50.9h-0.6v-4.5h0.6V50.9z"/>
		<path d="M69.1,46.6l-0.2,0.5c-0.2-0.1-0.4-0.2-0.6-0.2c-0.3,0-0.6,0.1-0.8,0.3c-0.2,0.2-0.3,0.4-0.3,0.7v3h-0.6v-4.5h0.6v0.3
			c0.2-0.3,0.6-0.4,1.1-0.4C68.7,46.3,68.9,46.4,69.1,46.6z"/>
		<path d="M71.6,47h-0.7v2.8c0,0.2,0,0.4,0.1,0.4c0.1,0,0.2,0.1,0.5,0.1v0.6h-0.3c-0.6,0-0.9-0.4-0.9-1.1V47h-0.6v-0.6h0.6v-1.3h0.6
			v1.3h0.7V47z"/>
		<path d="M73.5,44.8c0,0.1,0,0.2-0.1,0.3s-0.2,0.1-0.3,0.1c-0.1,0-0.2,0-0.3-0.1c-0.1-0.1-0.1-0.2-0.1-0.3c0-0.1,0-0.2,0.1-0.3
			c0.1-0.1,0.2-0.1,0.3-0.1c0.1,0,0.2,0,0.3,0.1C73.5,44.5,73.5,44.6,73.5,44.8z M73.4,50.9h-0.6v-4.5h0.6V50.9z"/>
		<path d="M78.2,48.5l0,0.4h-3.1c0,1,0.5,1.5,1.4,1.5c0.5,0,0.9-0.2,1.2-0.5l0.4,0.4c-0.4,0.5-0.9,0.7-1.6,0.7c-1.3,0-2-0.8-2-2.3
			c0-0.7,0.1-1.2,0.4-1.7c0.3-0.5,0.8-0.7,1.5-0.7c0.6,0,1,0.2,1.3,0.7C78.1,47.4,78.2,47.9,78.2,48.5z M77.6,48.3
			c0-0.9-0.4-1.3-1.1-1.3c-0.8,0-1.2,0.4-1.3,1.3H77.6z"/>
		<path d="M82.8,50.9h-0.6v-2.6c0-0.5-0.1-0.8-0.3-1c-0.2-0.2-0.5-0.3-1-0.3c-0.3,0-0.6,0.1-0.8,0.3c-0.2,0.2-0.3,0.5-0.3,0.8v2.8
			h-0.6v-4.5h0.6v0.4c0.3-0.3,0.7-0.5,1.1-0.5c1.2,0,1.8,0.6,1.8,1.9V50.9z"/>
		<path d="M87.4,50.8L86.8,51l-0.1-0.4c-0.3,0.3-0.7,0.4-1.2,0.4c-1.2,0-1.8-0.8-1.8-2.3c0-1.6,0.6-2.4,1.8-2.4c0.3,0,0.5,0,0.6,0.1
			c0.1,0,0.3,0.2,0.5,0.3v-2.3h0.6v6L87.4,50.8z M86.6,48c0-0.3-0.1-0.5-0.3-0.7c-0.2-0.2-0.5-0.3-0.8-0.3c-0.5,0-0.8,0.2-1,0.6
			c-0.1,0.3-0.2,0.7-0.2,1.2c0,0.5,0.1,0.9,0.2,1.2c0.2,0.4,0.5,0.5,1,0.5c0.3,0,0.6-0.1,0.8-0.3c0.2-0.2,0.3-0.4,0.3-0.8V48z"/>
		<path d="M92,48.7c0,1.5-0.6,2.3-1.9,2.3c-1.3,0-1.9-0.8-1.9-2.3c0-1.6,0.6-2.3,1.9-2.3C91.3,46.3,92,47.1,92,48.7z M91.4,48.7
			c0-0.5-0.1-0.9-0.2-1.2c-0.2-0.3-0.6-0.5-1.1-0.5c-0.5,0-0.8,0.2-1,0.5c-0.2,0.3-0.2,0.7-0.2,1.2c0,0.5,0.1,0.9,0.2,1.2
			c0.2,0.3,0.5,0.5,1,0.5c0.5,0,0.9-0.2,1.1-0.5C91.3,49.6,91.4,49.2,91.4,48.7z"/>
		<path d="M93.7,51.1L93,52.2h-0.1v-1.7c0-0.1,0-0.2,0.1-0.3c0.1-0.1,0.2-0.1,0.3-0.1c0.1,0,0.2,0,0.3,0.1c0.1,0.1,0.1,0.2,0.1,0.3
			V51.1z"/>
		<path d="M100.6,48.5l0,0.4h-3.1c0,1,0.5,1.5,1.4,1.5c0.5,0,0.9-0.2,1.2-0.5l0.4,0.4c-0.4,0.5-0.9,0.7-1.6,0.7c-1.3,0-2-0.8-2-2.3
			c0-0.7,0.1-1.2,0.4-1.7c0.3-0.5,0.8-0.7,1.5-0.7c0.6,0,1,0.2,1.3,0.7C100.4,47.4,100.6,47.9,100.6,48.5z M99.9,48.3
			c0-0.9-0.4-1.3-1.1-1.3c-0.8,0-1.2,0.4-1.3,1.3H99.9z"/>
		<path d="M104.9,49.7c0,0.4-0.2,0.8-0.5,1c-0.3,0.2-0.7,0.3-1.2,0.3c-1,0-1.6-0.4-1.8-1.3l0.6-0.2c0.1,0.6,0.6,0.9,1.2,0.9
			c0.3,0,0.5-0.1,0.7-0.2c0.2-0.1,0.4-0.3,0.4-0.6c0-0.3-0.2-0.5-0.7-0.7c-0.4-0.1-0.9-0.3-1.3-0.4c-0.5-0.2-0.7-0.5-0.7-1
			c0-0.4,0.2-0.7,0.5-0.9c0.3-0.2,0.6-0.3,1.1-0.3c0.8,0,1.4,0.3,1.7,1l-0.6,0.3c-0.2-0.4-0.6-0.7-1.1-0.7c-0.2,0-0.4,0-0.6,0.1
			c-0.2,0.1-0.3,0.3-0.3,0.5c0,0.2,0.2,0.4,0.7,0.6c0.8,0.2,1.2,0.4,1.3,0.4C104.7,48.8,104.9,49.2,104.9,49.7z"/>
		<path d="M107.4,47h-0.7v2.8c0,0.2,0,0.4,0.1,0.4c0.1,0,0.2,0.1,0.5,0.1v0.6H107c-0.6,0-0.9-0.4-0.9-1.1V47h-0.6v-0.6h0.6v-1.3h0.6
			v1.3h0.7V47z"/>
		<path d="M111,46.6l-0.2,0.5c-0.2-0.1-0.4-0.2-0.6-0.2c-0.3,0-0.6,0.1-0.8,0.3c-0.2,0.2-0.3,0.4-0.3,0.7v3h-0.6v-4.5h0.6v0.3
			c0.2-0.3,0.6-0.4,1.1-0.4C110.5,46.3,110.8,46.4,111,46.6z"/>
		<path d="M115.4,50.9h-0.6v-0.3c-0.3,0.3-0.7,0.4-1.1,0.4c-0.6,0-1.1-0.2-1.4-0.5c-0.3-0.3-0.4-0.8-0.4-1.5v-2.6h0.6V49
			c0,0.5,0.1,0.8,0.2,1c0.2,0.2,0.5,0.4,1,0.4c0.3,0,0.6-0.1,0.8-0.3c0.2-0.2,0.3-0.4,0.3-0.7v-3h0.6V50.9z"/>
		<path d="M120,50.3c-0.3,0.3-0.5,0.5-0.7,0.6c-0.2,0.1-0.5,0.2-0.9,0.2c-0.7,0-1.2-0.2-1.5-0.7c-0.3-0.4-0.5-1-0.5-1.6
			c0-0.7,0.2-1.2,0.5-1.6c0.4-0.5,0.9-0.7,1.5-0.7c0.3,0,0.6,0.1,0.9,0.2c0.2,0.1,0.4,0.3,0.7,0.6l-0.4,0.4
			c-0.2-0.2-0.4-0.4-0.5-0.4c-0.2-0.1-0.4-0.1-0.6-0.1c-0.9,0-1.4,0.6-1.4,1.7c0,1.2,0.5,1.7,1.4,1.7c0.2,0,0.5-0.1,0.6-0.2
			c0.1-0.1,0.3-0.2,0.5-0.4L120,50.3z"/>
		<path d="M122.6,47h-0.7v2.8c0,0.2,0,0.4,0.1,0.4c0.1,0,0.2,0.1,0.5,0.1v0.6h-0.3c-0.6,0-0.9-0.4-0.9-1.1V47h-0.6v-0.6h0.6v-1.3
			h0.6v1.3h0.7V47z"/>
		<path d="M127.1,50.9h-0.6v-0.3c-0.3,0.3-0.7,0.4-1.1,0.4c-0.6,0-1.1-0.2-1.4-0.5c-0.3-0.3-0.4-0.8-0.4-1.5v-2.6h0.6V49
			c0,0.5,0.1,0.8,0.2,1c0.2,0.2,0.5,0.4,1,0.4c0.3,0,0.6-0.1,0.8-0.3c0.2-0.2,0.3-0.4,0.3-0.7v-3h0.6V50.9z"/>
		<path d="M130.8,46.6l-0.2,0.5c-0.2-0.1-0.4-0.2-0.6-0.2c-0.3,0-0.6,0.1-0.8,0.3c-0.2,0.2-0.3,0.4-0.3,0.7v3h-0.6v-4.5h0.6v0.3
			c0.2-0.3,0.6-0.4,1.1-0.4C130.4,46.3,130.7,46.4,130.8,46.6z"/>
		<path d="M134.7,50.8l-0.6,0.2l-0.1-0.4c-0.4,0.2-0.8,0.4-1.3,0.4c-0.4,0-0.8-0.1-1-0.4c-0.3-0.3-0.5-0.6-0.5-1
			c0-0.4,0.2-0.8,0.5-1c0.3-0.2,0.6-0.4,1.1-0.4h0.8c0.2,0,0.4-0.1,0.5-0.2v-0.5c0-0.2-0.1-0.4-0.3-0.5c-0.2-0.1-0.4-0.2-0.6-0.2
			c-0.6,0-0.9,0.2-1.1,0.7l-0.6-0.2c0.2-0.7,0.8-1.1,1.7-1.1c0.4,0,0.8,0.1,1.1,0.3c0.3,0.2,0.5,0.6,0.5,1v2.7L134.7,50.8z M134,50
			v-1.2c-0.1,0.1-0.3,0.1-0.4,0.1h-0.8c-0.2,0-0.4,0.1-0.6,0.2c-0.2,0.1-0.3,0.3-0.3,0.6c0,0.2,0.1,0.4,0.3,0.5
			c0.2,0.1,0.4,0.2,0.6,0.2C133.2,50.4,133.6,50.3,134,50z"/>
		<path d="M139.3,50.9h-0.6v-2.6c0-0.5-0.1-0.8-0.3-1c-0.2-0.2-0.5-0.3-1-0.3c-0.3,0-0.6,0.1-0.8,0.3c-0.2,0.2-0.3,0.5-0.3,0.8v2.8
			h-0.6v-4.5h0.6v0.4c0.3-0.3,0.7-0.5,1.1-0.5c1.2,0,1.8,0.6,1.8,1.9V50.9z"/>
		<path d="M143.9,50.8l-0.6,0.2l-0.1-0.4c-0.3,0.3-0.7,0.4-1.2,0.4c-1.2,0-1.8-0.8-1.8-2.3c0-1.6,0.6-2.4,1.8-2.4
			c0.3,0,0.5,0,0.6,0.1c0.1,0,0.3,0.2,0.5,0.3v-2.3h0.6v6L143.9,50.8z M143.1,48c0-0.3-0.1-0.5-0.3-0.7c-0.2-0.2-0.5-0.3-0.8-0.3
			c-0.5,0-0.8,0.2-1,0.6c-0.1,0.3-0.2,0.7-0.2,1.2c0,0.5,0.1,0.9,0.2,1.2c0.2,0.4,0.5,0.5,1,0.5c0.3,0,0.6-0.1,0.8-0.3
			c0.2-0.2,0.3-0.4,0.3-0.8V48z"/>
		<path d="M148.5,48.7c0,1.5-0.6,2.3-1.9,2.3c-1.3,0-1.9-0.8-1.9-2.3c0-1.6,0.6-2.3,1.9-2.3C147.8,46.3,148.5,47.1,148.5,48.7z
			 M147.9,48.7c0-0.5-0.1-0.9-0.2-1.2c-0.2-0.3-0.6-0.5-1.1-0.5c-0.5,0-0.8,0.2-1,0.5c-0.2,0.3-0.2,0.7-0.2,1.2
			c0,0.5,0.1,0.9,0.2,1.2c0.2,0.3,0.5,0.5,1,0.5c0.5,0,0.9-0.2,1.1-0.5C147.8,49.6,147.9,49.2,147.9,48.7z"/>
		<path d="M155.3,46.4l-2.1,5.6c-0.2,0.6-0.7,0.9-1.3,0.9h-0.3l0-0.6l0.2,0c0.2,0,0.4,0,0.5-0.1c0.1-0.1,0.2-0.2,0.3-0.4l0.3-0.9
			l-1.6-4.5h0.7l1.3,3.6l1.3-3.6H155.3z"/>
		<path d="M161.5,46.4l-1.7,4.5h-0.6l-1.7-4.5h0.7l1.3,3.5l1.3-3.5H161.5z"/>
		<path d="M165.6,48.5l0,0.4h-3.1c0,1,0.5,1.5,1.4,1.5c0.5,0,0.9-0.2,1.2-0.5l0.4,0.4c-0.4,0.5-0.9,0.7-1.6,0.7c-1.3,0-2-0.8-2-2.3
			c0-0.7,0.1-1.2,0.4-1.7c0.3-0.5,0.8-0.7,1.5-0.7c0.6,0,1,0.2,1.3,0.7C165.5,47.4,165.6,47.9,165.6,48.5z M165,48.3
			c0-0.9-0.4-1.3-1.1-1.3c-0.8,0-1.2,0.4-1.3,1.3H165z"/>
		<path d="M170.2,50.9h-0.6v-2.6c0-0.5-0.1-0.8-0.3-1c-0.2-0.2-0.5-0.3-1-0.3c-0.3,0-0.6,0.1-0.8,0.3c-0.2,0.2-0.3,0.5-0.3,0.8v2.8
			h-0.6v-4.5h0.6v0.4c0.3-0.3,0.7-0.5,1.1-0.5c1.2,0,1.8,0.6,1.8,1.9V50.9z"/>
		<path d="M174.8,50.8l-0.6,0.2l-0.1-0.4c-0.3,0.3-0.7,0.4-1.2,0.4c-1.2,0-1.8-0.8-1.8-2.3c0-1.6,0.6-2.4,1.8-2.4
			c0.3,0,0.5,0,0.6,0.1s0.3,0.2,0.5,0.3v-2.3h0.6v6L174.8,50.8z M174,48c0-0.3-0.1-0.5-0.3-0.7c-0.2-0.2-0.5-0.3-0.8-0.3
			c-0.5,0-0.8,0.2-1,0.6c-0.1,0.3-0.2,0.7-0.2,1.2c0,0.5,0.1,0.9,0.2,1.2c0.2,0.4,0.5,0.5,1,0.5c0.3,0,0.6-0.1,0.8-0.3
			c0.2-0.2,0.3-0.4,0.3-0.8V48z"/>
		<path d="M176.6,44.8c0,0.1,0,0.2-0.1,0.3c-0.1,0.1-0.2,0.1-0.3,0.1c-0.1,0-0.2,0-0.3-0.1s-0.1-0.2-0.1-0.3c0-0.1,0-0.2,0.1-0.3
			c0.1-0.1,0.2-0.1,0.3-0.1c0.1,0,0.2,0,0.3,0.1C176.6,44.5,176.6,44.6,176.6,44.8z M176.5,50.9h-0.6v-4.5h0.6V50.9z"/>
		<path d="M181.4,48.5l0,0.4h-3.1c0,1,0.5,1.5,1.4,1.5c0.5,0,0.9-0.2,1.2-0.5l0.4,0.4c-0.4,0.5-0.9,0.7-1.6,0.7c-1.3,0-2-0.8-2-2.3
			c0-0.7,0.1-1.2,0.4-1.7c0.3-0.5,0.8-0.7,1.5-0.7c0.6,0,1,0.2,1.3,0.7C181.2,47.4,181.4,47.9,181.4,48.5z M180.7,48.3
			c0-0.9-0.4-1.3-1.1-1.3c-0.8,0-1.2,0.4-1.3,1.3H180.7z"/>
		<path d="M185.9,50.9h-0.6v-2.6c0-0.5-0.1-0.8-0.3-1c-0.2-0.2-0.5-0.3-1-0.3c-0.3,0-0.6,0.1-0.8,0.3c-0.2,0.2-0.3,0.5-0.3,0.8v2.8
			h-0.6v-4.5h0.6v0.4c0.3-0.3,0.7-0.5,1.1-0.5c1.2,0,1.8,0.6,1.8,1.9V50.9z"/>
		<path d="M190.5,50.8l-0.6,0.2l-0.1-0.4c-0.3,0.3-0.7,0.4-1.2,0.4c-1.2,0-1.8-0.8-1.8-2.3c0-1.6,0.6-2.4,1.8-2.4
			c0.3,0,0.5,0,0.6,0.1s0.3,0.2,0.5,0.3v-2.3h0.6v6L190.5,50.8z M189.7,48c0-0.3-0.1-0.5-0.3-0.7c-0.2-0.2-0.5-0.3-0.8-0.3
			c-0.5,0-0.8,0.2-1,0.6c-0.1,0.3-0.2,0.7-0.2,1.2c0,0.5,0.1,0.9,0.2,1.2c0.2,0.4,0.5,0.5,1,0.5c0.3,0,0.6-0.1,0.8-0.3
			c0.2-0.2,0.3-0.4,0.3-0.8V48z"/>
		<path d="M195.1,48.7c0,1.5-0.6,2.3-1.9,2.3c-1.3,0-1.9-0.8-1.9-2.3c0-1.6,0.6-2.3,1.9-2.3C194.5,46.3,195.1,47.1,195.1,48.7z
			 M194.5,48.7c0-0.5-0.1-0.9-0.2-1.2c-0.2-0.3-0.6-0.5-1.1-0.5c-0.5,0-0.8,0.2-1,0.5c-0.2,0.3-0.2,0.7-0.2,1.2
			c0,0.5,0.1,0.9,0.2,1.2c0.2,0.3,0.5,0.5,1,0.5c0.5,0,0.9-0.2,1.1-0.5C194.4,49.6,194.5,49.2,194.5,48.7z"/>
		<path d="M201.9,48.5l0,0.4h-3.1c0,1,0.5,1.5,1.4,1.5c0.5,0,0.9-0.2,1.2-0.5l0.4,0.4c-0.4,0.5-0.9,0.7-1.6,0.7c-1.3,0-2-0.8-2-2.3
			c0-0.7,0.1-1.2,0.4-1.7c0.3-0.5,0.8-0.7,1.5-0.7c0.6,0,1,0.2,1.3,0.7C201.7,47.4,201.9,47.9,201.9,48.5z M201.3,48.3
			c0-0.9-0.4-1.3-1.1-1.3c-0.8,0-1.2,0.4-1.3,1.3H201.3z"/>
		<path d="M208.9,50.9h-0.6v-2.8c0-0.3-0.1-0.6-0.3-0.8c-0.2-0.2-0.5-0.4-0.8-0.4c-0.3,0-0.6,0.1-0.8,0.4c-0.2,0.2-0.3,0.5-0.3,0.8
			v2.8h-0.6v-2.8c0-0.4-0.1-0.6-0.3-0.9c-0.2-0.2-0.5-0.4-0.8-0.4c-0.3,0-0.5,0.1-0.7,0.4c-0.2,0.2-0.3,0.5-0.3,0.8v2.8h-0.6v-4.5
			h0.6v0.4c0.3-0.3,0.6-0.4,1-0.4c0.6,0,1.1,0.2,1.4,0.7c0.3-0.5,0.8-0.7,1.3-0.7c0.5,0,0.9,0.2,1.2,0.5c0.3,0.3,0.5,0.8,0.5,1.3
			V50.9z"/>
		<path d="M213.5,48.7c0,1.6-0.6,2.3-1.8,2.3c-0.5,0-0.9-0.1-1.1-0.4V53H210v-6.6h0.6v0.3c0.3-0.3,0.7-0.4,1.1-0.4
			C212.9,46.3,213.5,47.1,213.5,48.7z M212.9,48.7c0-0.5-0.1-0.9-0.2-1.2c-0.2-0.4-0.5-0.6-1-0.6c-0.3,0-0.6,0.1-0.8,0.3
			c-0.2,0.2-0.3,0.4-0.3,0.8v1.4c0,0.3,0.1,0.6,0.3,0.8c0.2,0.2,0.5,0.3,0.8,0.3c0.5,0,0.8-0.2,1-0.5
			C212.9,49.6,212.9,49.2,212.9,48.7z"/>
		<path d="M217.1,46.6l-0.2,0.5c-0.2-0.1-0.4-0.2-0.6-0.2c-0.3,0-0.6,0.1-0.8,0.3c-0.2,0.2-0.3,0.4-0.3,0.7v3h-0.6v-4.5h0.6v0.3
			c0.2-0.3,0.6-0.4,1.1-0.4C216.6,46.3,216.9,46.4,217.1,46.6z"/>
		<path d="M221.2,48.5l0,0.4h-3.1c0,1,0.5,1.5,1.4,1.5c0.5,0,0.9-0.2,1.2-0.5l0.4,0.4c-0.4,0.5-0.9,0.7-1.6,0.7c-1.3,0-2-0.8-2-2.3
			c0-0.7,0.1-1.2,0.4-1.7c0.3-0.5,0.8-0.7,1.5-0.7c0.6,0,1,0.2,1.3,0.7C221.1,47.4,221.2,47.9,221.2,48.5z M220.6,48.3
			c0-0.9-0.4-1.3-1.1-1.3c-0.8,0-1.2,0.4-1.3,1.3H220.6z"/>
		<path d="M225.6,49.7c0,0.4-0.2,0.8-0.5,1c-0.3,0.2-0.7,0.3-1.2,0.3c-1,0-1.6-0.4-1.8-1.3l0.6-0.2c0.1,0.6,0.6,0.9,1.2,0.9
			c0.3,0,0.5-0.1,0.7-0.2c0.2-0.1,0.4-0.3,0.4-0.6c0-0.3-0.2-0.5-0.7-0.7c-0.4-0.1-0.9-0.3-1.3-0.4c-0.5-0.2-0.7-0.5-0.7-1
			c0-0.4,0.2-0.7,0.5-0.9c0.3-0.2,0.6-0.3,1.1-0.3c0.8,0,1.4,0.3,1.7,1l-0.6,0.3c-0.2-0.4-0.6-0.7-1.1-0.7c-0.2,0-0.4,0-0.6,0.1
			c-0.2,0.1-0.3,0.3-0.3,0.5c0,0.2,0.2,0.4,0.7,0.6c0.8,0.2,1.2,0.4,1.3,0.4C225.3,48.8,225.6,49.2,225.6,49.7z"/>
		<path d="M229.8,50.8l-0.6,0.2l-0.1-0.4c-0.4,0.2-0.8,0.4-1.3,0.4c-0.4,0-0.8-0.1-1-0.4c-0.3-0.3-0.5-0.6-0.5-1
			c0-0.4,0.2-0.8,0.5-1c0.3-0.2,0.6-0.4,1.1-0.4h0.8c0.2,0,0.4-0.1,0.5-0.2v-0.5c0-0.2-0.1-0.4-0.3-0.5c-0.2-0.1-0.4-0.2-0.6-0.2
			c-0.6,0-0.9,0.2-1.1,0.7l-0.6-0.2c0.2-0.7,0.8-1.1,1.7-1.1c0.4,0,0.8,0.1,1.1,0.3c0.3,0.2,0.5,0.6,0.5,1v2.7L229.8,50.8z
			 M229.1,50v-1.2c-0.1,0.1-0.3,0.1-0.4,0.1h-0.8c-0.2,0-0.4,0.1-0.6,0.2c-0.2,0.1-0.3,0.3-0.3,0.6c0,0.2,0.1,0.4,0.3,0.5
			c0.2,0.1,0.4,0.2,0.6,0.2C228.3,50.4,228.7,50.3,229.1,50z"/>
		<path d="M234.2,49.7c0,0.4-0.2,0.8-0.5,1c-0.3,0.2-0.7,0.3-1.2,0.3c-1,0-1.6-0.4-1.8-1.3l0.6-0.2c0.1,0.6,0.6,0.9,1.2,0.9
			c0.3,0,0.5-0.1,0.7-0.2c0.2-0.1,0.4-0.3,0.4-0.6c0-0.3-0.2-0.5-0.7-0.7c-0.4-0.1-0.9-0.3-1.3-0.4c-0.5-0.2-0.7-0.5-0.7-1
			c0-0.4,0.2-0.7,0.5-0.9c0.3-0.2,0.6-0.3,1.1-0.3c0.8,0,1.4,0.3,1.7,1l-0.6,0.3c-0.2-0.4-0.6-0.7-1.1-0.7c-0.2,0-0.4,0-0.6,0.1
			c-0.2,0.1-0.3,0.3-0.3,0.5c0,0.2,0.2,0.4,0.7,0.6c0.8,0.2,1.2,0.4,1.3,0.4C233.9,48.8,234.2,49.2,234.2,49.7z"/>
		<path d="M239.4,44.4V45c-0.7,0-1.1,0.4-1.1,1.1v0.3h0.9V47h-0.9v3.9h-0.6V47h-0.4v-0.6h0.4v-0.3C237.7,45,238.3,44.4,239.4,44.4z"
			/>
		<path d="M243.3,50.8l-0.6,0.2l-0.1-0.4c-0.4,0.2-0.8,0.4-1.3,0.4c-0.4,0-0.8-0.1-1-0.4c-0.3-0.3-0.5-0.6-0.5-1
			c0-0.4,0.2-0.8,0.5-1c0.3-0.2,0.6-0.4,1.1-0.4h0.8c0.2,0,0.4-0.1,0.5-0.2v-0.5c0-0.2-0.1-0.4-0.3-0.5c-0.2-0.1-0.4-0.2-0.6-0.2
			c-0.6,0-0.9,0.2-1.1,0.7l-0.6-0.2c0.2-0.7,0.8-1.1,1.7-1.1c0.4,0,0.8,0.1,1.1,0.3c0.3,0.2,0.5,0.6,0.5,1v2.7L243.3,50.8z
			 M242.6,50v-1.2c-0.1,0.1-0.3,0.1-0.4,0.1h-0.8c-0.2,0-0.4,0.1-0.6,0.2c-0.2,0.1-0.3,0.3-0.3,0.6c0,0.2,0.1,0.4,0.3,0.5
			c0.2,0.1,0.4,0.2,0.6,0.2C241.8,50.4,242.2,50.3,242.6,50z"/>
		<path d="M250.4,50.9h-0.6v-2.8c0-0.3-0.1-0.6-0.3-0.8c-0.2-0.2-0.5-0.4-0.8-0.4c-0.3,0-0.6,0.1-0.8,0.4c-0.2,0.2-0.3,0.5-0.3,0.8
			v2.8H247v-2.8c0-0.4-0.1-0.6-0.3-0.9c-0.2-0.2-0.5-0.4-0.8-0.4c-0.3,0-0.5,0.1-0.7,0.4c-0.2,0.2-0.3,0.5-0.3,0.8v2.8h-0.6v-4.5
			h0.6v0.4c0.3-0.3,0.6-0.4,1-0.4c0.6,0,1.1,0.2,1.4,0.7c0.3-0.5,0.8-0.7,1.3-0.7c0.5,0,0.9,0.2,1.2,0.5c0.3,0.3,0.5,0.8,0.5,1.3
			V50.9z"/>
		<path d="M252.3,44.8c0,0.1,0,0.2-0.1,0.3s-0.2,0.1-0.3,0.1c-0.1,0-0.2,0-0.3-0.1s-0.1-0.2-0.1-0.3c0-0.1,0-0.2,0.1-0.3
			c0.1-0.1,0.2-0.1,0.3-0.1c0.1,0,0.2,0,0.3,0.1C252.3,44.5,252.3,44.6,252.3,44.8z M252.2,50.9h-0.6v-4.5h0.6V50.9z"/>
		<path d="M254.7,50.9c-0.7,0-1-0.4-1-1.1v-5.5h0.6v5.4c0,0.2,0,0.3,0.1,0.4c0,0.1,0.2,0.1,0.3,0.1V50.9z"/>
		<path d="M256.5,44.8c0,0.1,0,0.2-0.1,0.3c-0.1,0.1-0.2,0.1-0.3,0.1c-0.1,0-0.2,0-0.3-0.1s-0.1-0.2-0.1-0.3c0-0.1,0-0.2,0.1-0.3
			c0.1-0.1,0.2-0.1,0.3-0.1c0.1,0,0.2,0,0.3,0.1C256.4,44.5,256.5,44.6,256.5,44.8z M256.4,50.9h-0.6v-4.5h0.6V50.9z"/>
		<path d="M261,50.8l-0.6,0.2l-0.1-0.4c-0.4,0.2-0.8,0.4-1.3,0.4c-0.4,0-0.8-0.1-1-0.4c-0.3-0.3-0.5-0.6-0.5-1c0-0.4,0.2-0.8,0.5-1
			c0.3-0.2,0.6-0.4,1.1-0.4h0.8c0.2,0,0.4-0.1,0.5-0.2v-0.5c0-0.2-0.1-0.4-0.3-0.5c-0.2-0.1-0.4-0.2-0.6-0.2c-0.6,0-0.9,0.2-1.1,0.7
			l-0.6-0.2c0.2-0.7,0.8-1.1,1.7-1.1c0.4,0,0.8,0.1,1.1,0.3c0.3,0.2,0.5,0.6,0.5,1v2.7L261,50.8z M260.3,50v-1.2
			c-0.1,0.1-0.3,0.1-0.4,0.1H259c-0.2,0-0.4,0.1-0.6,0.2c-0.2,0.1-0.3,0.3-0.3,0.6c0,0.2,0.1,0.4,0.3,0.5c0.2,0.1,0.4,0.2,0.6,0.2
			C259.5,50.4,259.9,50.3,260.3,50z"/>
		<path d="M264.6,46.6l-0.2,0.5c-0.2-0.1-0.4-0.2-0.6-0.2c-0.3,0-0.6,0.1-0.8,0.3c-0.2,0.2-0.3,0.4-0.3,0.7v3H262v-4.5h0.6v0.3
			c0.2-0.3,0.6-0.4,1.1-0.4C264.1,46.3,264.4,46.4,264.6,46.6z"/>
		<path d="M268.7,48.5l0,0.4h-3.1c0,1,0.5,1.5,1.4,1.5c0.5,0,0.9-0.2,1.2-0.5l0.4,0.4c-0.4,0.5-0.9,0.7-1.6,0.7c-1.3,0-2-0.8-2-2.3
			c0-0.7,0.1-1.2,0.4-1.7c0.3-0.5,0.8-0.7,1.5-0.7c0.6,0,1,0.2,1.3,0.7C268.6,47.4,268.7,47.9,268.7,48.5z M268.1,48.3
			c0-0.9-0.4-1.3-1.1-1.3c-0.8,0-1.2,0.4-1.3,1.3H268.1z"/>
		<path d="M273,49.7c0,0.4-0.2,0.8-0.5,1c-0.3,0.2-0.7,0.3-1.2,0.3c-1,0-1.6-0.4-1.8-1.3l0.6-0.2c0.1,0.6,0.6,0.9,1.2,0.9
			c0.3,0,0.5-0.1,0.7-0.2c0.2-0.1,0.4-0.3,0.4-0.6c0-0.3-0.2-0.5-0.7-0.7c-0.4-0.1-0.9-0.3-1.3-0.4c-0.5-0.2-0.7-0.5-0.7-1
			c0-0.4,0.2-0.7,0.5-0.9c0.3-0.2,0.6-0.3,1.1-0.3c0.8,0,1.4,0.3,1.7,1l-0.6,0.3c-0.2-0.4-0.6-0.7-1.1-0.7c-0.2,0-0.4,0-0.6,0.1
			c-0.2,0.1-0.3,0.3-0.3,0.5c0,0.2,0.2,0.4,0.7,0.6c0.8,0.2,1.2,0.4,1.3,0.4C272.8,48.8,273,49.2,273,49.7z"/>
	</g>
</g>
</svg>
